<svg width="92" height="92" viewBox="0 0 92 92" fill="none" xmlns="http://www.w3.org/2000/svg">
<circle cx="46.3513" cy="45.6625" r="45.371" fill="#001E35"/>
<path d="M58.1292 36.3936C58.1292 37.7882 57.6995 39.4487 56.9113 41.2958C56.1289 43.1293 55.0314 45.0594 53.786 46.9695C51.4238 50.5923 48.6064 54.0284 46.5868 56.4638C44.4482 53.9129 41.6651 50.316 39.3618 46.6405C38.149 44.7051 37.0858 42.7741 36.3195 40.9814C35.5452 39.1698 35.1167 37.5966 35.0811 36.3508C34.9014 30.0615 40.201 24.8699 46.6055 24.8699C52.9699 24.8699 58.1292 30.0292 58.1292 36.3936Z" stroke="#73C5FF" stroke-width="3"/>
<circle cx="46.6042" cy="36.7618" r="4.22675" stroke="#73C5FF" stroke-width="3"/>
<path d="M51.5407 51.1736H59.8664C60.3436 51.1736 60.7852 51.4264 61.0268 51.838L64.2431 57.316M34.3202 63.3199L40.603 53.2307C41.1612 52.3343 40.5167 51.1736 39.4607 51.1736H33.5919C33.1222 51.1736 32.6864 51.4186 32.4423 51.8199L26.6051 61.4132C26.0594 62.31 26.7049 63.4584 27.7547 63.4584H65.4988C66.5391 63.4584 67.186 62.3285 66.6593 61.4314L64.2431 57.316M64.2431 57.316H54.7917C54.3 57.316 53.8475 57.5842 53.6114 58.0154L50.8077 63.1352" stroke="#73C5FF" stroke-width="3"/>
</svg>
